<svg version="1.2" xmlns="http://www.w3.org/2000/svg" viewBox="0 0 23 25" width="23" height="25"><style>.a{fill:#f3f3f3}</style><g style="opacity:.5"><path fill-rule="evenodd" class="a" d="m20.6 8c-0.8 0-1.5 0.7-1.5 1.5v6.2c0 0.8 0.7 1.5 1.5 1.5 0.9 0 1.6-0.7 1.6-1.5v-6.2c0-0.8-0.7-1.5-1.6-1.5zm-18.5 0c-0.8 0-1.5 0.7-1.5 1.5v6.2c0 0.8 0.7 1.5 1.5 1.5 0.9 0 1.6-0.7 1.6-1.5v-6.2c0-0.8-0.7-1.5-1.6-1.5zm2.4 10c0 1.3 1 2.3 2.3 2.3h0.7v3.1c0 0.8 0.7 1.5 1.6 1.5 0.8 0 1.5-0.7 1.5-1.5v-3.1h1.6v3.1c0 0.8 0.7 1.5 1.5 1.5 0.8 0 1.5-0.7 1.5-1.5v-3.1h0.8c1.3 0 2.3-1 2.3-2.3v-8.5h-13.8zm9.7-15.6l1-1.8c0.1-0.1 0-0.3-0.1-0.3-0.1 0-0.2 0-0.2 0.1l-1 1.9q-1.2-0.5-2.5-0.5-1.3 0-2.5 0.5l-1-1.9c-0.1-0.1-0.2-0.1-0.3-0.1-0.1 0-0.1 0.2 0 0.3l0.9 1.8c-2.1 1-3.7 3.1-4 5.6h13.8c-0.3-2.5-1.9-4.6-4.1-5.6zm-5.9 4.4c-0.6 0-1.1-0.5-1.1-1.1 0-0.6 0.5-1.1 1.1-1.1 0.6 0 1.1 0.5 1.1 1.1 0 0.6-0.5 1.1-1.1 1.1zm6.2 0c-0.6 0-1.1-0.5-1.1-1.1 0-0.6 0.5-1.1 1.1-1.1 0.6 0 1.1 0.5 1.1 1.1 0 0.6-0.5 1.1-1.1 1.1z"/></g></svg>